<?xml version="1.0" encoding="iso-8859-1"?>
<!-- Generator: Adobe Illustrator 19.0.0, SVG Export Plug-In . SVG Version: 6.00 Build 0)  -->
<svg version="1.1" id="Capa_1" xmlns="http://www.w3.org/2000/svg" xmlns:xlink="http://www.w3.org/1999/xlink" x="0px" y="0px"
	 viewBox="0 0 423.739 423.739" style="enable-background:new 0 0 423.739 423.739;" xml:space="preserve">
<path id="XMLID_16_" d="M126.986,96.638h-18.978v-18h18.978V96.638z M189.564,78.638h-18.976v18h18.976V78.638z M411.01,185.301
	l-40.411-0.018l-0.096,62.831l-11.53,11.918l12.936,12.516l16.583-17.14l0.08-52.117l6.62,0.003l9.66,74.525l-20.28,23.452
	l-2.439-0.005L243.465,154.325H225.83v18h9.872l133.479,141.444v70.088c0,7.271-5.916,13.188-13.188,13.188H193.007v-15.272
	c0-8.421,6.851-15.271,15.272-15.271h62.851v-9c0-21.805,17.739-39.544,39.544-39.544v-18c-28.668,0-52.507,21.075-56.841,48.544
	h-45.554c-0.602,0-1.2,0.016-1.794,0.048l3.848-54.437l42.717-33.486l-11.105-14.166l-49.004,38.415l-4.987,70.573
	c-7.87,6.091-12.946,15.626-12.946,26.325v15.272H71.113v-15.272c0-8.421,6.851-15.271,15.271-15.271h55.423l10.029-154.047
	l-17.962-1.169l-8.933,137.216H86.385c-18.346,0-33.271,14.926-33.271,33.271v33.272h302.88c17.197,0,31.188-13.991,31.188-31.188
	v-64.581l5.607,0.011l30.95-35.79L411.01,185.301z M58.972,111.407c-4.758,0-9.297-2.209-12.454-6.061L4.276,53.806
	c-5.702-6.958-5.702-17.858,0-24.816l0,0L20.909,8.694h76.126l16.634,20.295c0.761,0.929,1.421,1.928,1.979,2.979h66.278
	c0.557-1.05,1.216-2.048,1.977-2.977l0.001-0.001l16.632-20.295h76.126l16.635,20.295c5.703,6.958,5.702,17.859,0,24.817
	l-42.241,51.541c-3.156,3.852-7.696,6.061-12.454,6.061c-4.759,0-9.299-2.208-12.456-6.06l-3.943-4.812l-10.67,68.467
	c-2.461,15.792-14.017,26.822-28.102,26.822h-69.287c-14.085,0-25.642-11.03-28.102-26.822l-10.669-68.468l-3.943,4.812
	C68.27,109.198,63.73,111.407,58.972,111.407C58.973,111.407,58.972,111.407,58.972,111.407z M197.827,42.398l40.773,49.75
	l40.774-49.751c0.308-0.392,0.307-1.605-0.001-1.998l-11.231-13.704h-59.085l-11.231,13.705
	C197.519,40.794,197.52,42.006,197.827,42.398z M113.669,53.806L90.678,81.859l13.148,84.373
	c0.833,5.348,4.035,11.593,10.317,11.593h25.644v-30.543h-13.705v-18h45.411v18h-13.706v30.543h25.643
	c6.281,0,9.483-6.246,10.316-11.594l13.148-84.372l-22.991-28.053c-0.966-1.179-1.768-2.472-2.407-3.838h-65.42
	C115.438,51.335,114.636,52.627,113.669,53.806z M58.973,92.147l40.775-49.751c0.307-0.392,0.307-1.605,0-1.998L88.515,26.694H29.43
	l-11.23,13.704c-0.308,0.392-0.308,1.606,0,1.999L58.973,92.147z"/>
<g>
</g>
<g>
</g>
<g>
</g>
<g>
</g>
<g>
</g>
<g>
</g>
<g>
</g>
<g>
</g>
<g>
</g>
<g>
</g>
<g>
</g>
<g>
</g>
<g>
</g>
<g>
</g>
<g>
</g>
</svg>
